<svg version="1.1" viewBox="0 0 1218.1 517.31" xml:space="preserve" xmlns="http://www.w3.org/2000/svg"><defs><clipPath id="a"><path d="M 0,387.986 H 913.572 V 0 H 0 Z"/></clipPath></defs><g transform="matrix(1.3333 0 0 -1.3333 0 517.31)"><g clip-path="url(#a)"><g transform="translate(848.42 189.62)"><path d="m0 0c-6.82 1.876-16.882 3.752-25.75 3.752-8.185 0-12.278-0.683-12.278-7.504 0-4.603 2.388-5.797 15.86-7.502 20.294-2.559 29.331-8.698 29.331-26.603 0-23.704-17.053-30.013-39.052-30.013-9.378 0-23.021 1.876-31.036 4.774l5.117 19.782c6.48-1.875 16.201-3.581 24.726-3.581 10.232 0 15.007 0.853 15.007 7.674 0 4.775-2.9 6.65-17.396 8.015-18.246 1.705-27.965 6.991-27.965 25.579 0 23.703 16.882 29.842 38.71 29.842 9.378 0 21.657-1.875 29.843-4.775zm-97.441-0.682v-32.571c0-8.867 2.557-12.449 11.766-12.449 5.458 0 9.892 1.024 13.984 2.388l4.264-20.122c-6.481-2.729-16.884-4.434-26.261-4.434-19.27 0-30.015 5.798-30.015 31.889v73.2l26.262 10.572v-25.963h27.286v-22.51zm-61.488 22.51h25.921v-82.024c-11.085-3.922-28.65-7.844-44.167-7.844-24.217 0-35.811 10.231-35.811 41.437v48.431h25.919v-46.385c0-15.688 2.729-20.121 15.519-20.121 4.263 0 8.016 0.682 12.619 1.705zm-120.22-43.655c0-21.998 3.582-25.58 15.86-25.58 12.449 0 16.029 3.582 16.029 25.58 0 22.85-3.58 25.579-16.029 25.579-12.278 0-15.86-2.729-15.86-25.579m-26.431 0.512c0 35.639 14.495 45.53 42.291 45.53 28.308 0 42.631-9.891 42.631-45.53 0-35.812-14.152-46.555-42.631-46.555-28.137 0-42.291 10.743-42.291 46.555m-2.001-42.121c-6.991-2.899-18.76-4.434-27.456-4.434-26.091 0-43.484 10.743-43.484 46.555 0 35.469 17.564 45.53 43.484 45.53 9.039 0 20.634-1.364 27.456-3.751l-5.458-22.169c-4.945 1.876-12.618 3.581-19.781 3.581-12.788 0-19.271-2.217-19.271-23.703 0-20.464 6.483-23.533 19.271-23.533 7.503 0 14.836 1.876 19.781 3.922zm-83.679 84.205c-6.691 1.911-18.161 3.664-30.427 3.664-16.567 0-21.346-3.187-21.346-10.833 0-7.01 3.186-9.558 22.462-11.629 25.329-2.867 36.639-12.585 36.639-33.772 0-27.4-14.656-36.162-49.224-36.162-13.383 0-27.082 2.071-36.003 5.257l5.257 21.983c7.168-1.911 18.32-3.664 30.426-3.664 16.569 0 21.825 2.391 21.825 10.833 0 7.01-3.027 10.355-23.896 12.584-23.735 2.55-34.886 10.356-34.886 30.906 0 27.559 15.93 38.073 48.905 38.073 13.382 0 26.762-2.071 35.525-5.257z" fill="#fff"/></g><g transform="translate(661.35 78.662)"><path d="m0 0v11.564h11.014c2.698 0 4.294-1.928 4.294-5.946 0-3.746-1.651-5.618-4.459-5.618zm13.327-3.966c7.652 0.277 10.077 5.012 10.077 10.519 0 6.168-2.59 11.179-10.683 11.179h-19.991v-38.381h7.27v14.646h5.122c2.476 0 6.057-4.128 12.06-14.646h8.974c-6.718 11.233-10.187 15.749-12.829 16.683m-44.179-10.903c-8.424 0-10.515 2.094-10.515 13.658 0 11.618 2.091 13.325 10.515 13.325 8.427 0 10.519-1.707 10.519-13.325 0-11.564-2.092-13.658-10.519-13.658m0 33.536c-12.168 0-18.282-4.186-18.282-19.77 0-15.857 6.057-20.319 18.282-20.319 12.171 0 18.228 4.462 18.228 20.319 0 15.584-6.057 19.77-18.228 19.77m61.369-39.316h7.268v38.382h-7.268zm23.297 15.803c1.981 5.783 4.018 11.453 5.947 16.41h1.487c1.487-4.957 3.359-10.738 5.342-16.41zm12.776 22.578h-11.399c-4.681-11.456-10.299-26.928-13.878-38.381h7.599c0.883 2.917 1.872 6.168 2.975 9.581h16.795c1.267-3.525 2.589-6.829 3.689-9.581h8.039c-4.296 10.242-9.911 26.045-13.82 38.381m-149.54-6.279h12.94v-32.102h7.323v32.102h12.942v6.279h-33.205zm-45.443-32.102h7.268v38.382h-7.268zm33.207 32.709c2.589 0 6.168-0.496 8.152-1.211l1.596 6.387c-2.974 0.826-7.49 1.431-11.014 1.431-12.169 0-18.006-4.074-18.006-19.77 0-15.637 5.837-20.319 18.006-20.319 3.524 0 8.04 0.553 11.014 1.379l-1.596 6.496c-1.984-0.715-5.563-1.211-8.152-1.211-8.369 0-11.508 1.818-11.508 13.602 0 11.783 3.139 13.216 11.508 13.216m-54.967-25.331c-2.81 9.582-7.49 22.632-10.959 31.003h-8.039c4.514-10.242 10.131-26.211 13.877-38.381h9.305c4.847 11.453 10.518 26.925 14.042 38.381h-7.654c-2.754-9.362-6.773-21.641-10.572-31.003" fill="#fff"/></g><g transform="translate(256.46 267.72)"><path d="m0 0c-1.444 11.997-4.168 22.655-5.811 28.747-4.59 17.028-10.769 33.665-22.349 33.566-12.59-0.108-18.839-15.071-26.403-33.517-7.718-18.819-12.193-26.928-19.085-30.58-9.526-5.049-27.018 2.136-33.497-5.79-2.93-3.585-3.568-9.361-2.632-15.965 0.693-4.884 2.247-10.22 4.376-15.462 2.007-4.94 4.522-9.797 7.308-14.107 6.43-9.949 14.694-17.575 24.879-21.973 2.366-1.023 4.837-1.869 7.412-2.531 0.197-0.051 0.395-0.099 0.593-0.148 3.685-0.899 7.581-1.425 11.695-1.536 0.554-0.016 1.11-0.026 1.672-0.026 0.543 0 1.095 0.013 1.655 0.038 3.278 0.144 6.823 0.724 10.463 1.775 0.271 0.079 0.542 0.151 0.815 0.235 0.335 0.102 0.672 0.219 1.009 0.331 1.598 0.528 3.208 1.138 4.818 1.857 0.641 0.286 1.282 0.589 1.922 0.906 10.363 5.14 20.446 14.409 26.513 28.986 1.978 4.751 3.535 10.056 4.528 15.977 1.598 9.524 1.254 19.784 0.119 29.217" fill="#fbc11c"/></g><g transform="translate(239.21 254.79)"><path d="m0 0c-0.638 10.451-2.981 20.108-5.547 27.953-2.383 7.285-6.057 12.975-11.149 12.973-7.581-3e-3 -12.686-8.714-17.801-18.03-6.376-11.611-11.413-19.015-24.082-22.29-7.749-2.002-12.836-4.83-14.668-11.318-0.448-1.586-0.676-3.257-0.73-4.971-0.175-5.536 1.53-11.543 4.011-16.808 2.389-5.071 5.492-9.451 8.325-12.051 3.362-3.084 7.098-5.508 11.156-7.202 4.093-1.709 8.519-2.667 13.231-2.79 0.348-0.01 0.694-0.025 1.045-0.025 1.373 0 2.711 0.099 4.023 0.271 15.683 2.052 26.891 15.922 30.423 31.209 1.363 5.894 1.928 11.761 1.934 17.452 2e-3 1.897-0.058 3.774-0.171 5.627" fill="#ef7d15"/></g><g transform="translate(331.17 218.11)"><path d="m0 0c-24.766 13.049-65.6 13.171-65.211 40.928 0.104 7.435-4.076 10.393-9.507 8.688-1.33-0.418-2.734-1.105-4.171-2.087-3.529-2.412-8.155-6.125-13.074-10.844-3.106-2.981-6.329-6.36-9.47-10.074-8.968-10.608-20.025-27.905-22.716-44.215-0.146-0.889-0.275-1.777-0.37-2.66-0.357-3.306-0.474-6.434-0.386-9.404 0.071-2.405 0.277-4.707 0.618-6.899 0.68-4.372 1.874-8.329 3.507-11.9 1.466-3.205 3.287-6.096 5.399-8.702 3.579-4.413 7.999-7.999 12.986-10.857 1.315-0.753 2.622-1.422 3.925-2.053 10.018-4.848 19.648-6.112 28.343-4.37 3.895 0.779 7.597 2.167 11.066 4.095 0.311 0.173 0.629 0.331 0.937 0.513 18.103 10.705 14.148 30.975 35.288 45.672 9.649 6.708 17.348 9.815 23.801 11.855 7.122 2.251 7.085 8.072-0.965 12.314" fill="#71c32d"/></g><g transform="translate(251.81 222.53)"><path d="m0 0c-8.133-1.042-16.086-3.967-22.845-9.628-4.409-3.693-8.704-10.857-10.063-19.151-0.435-1.002-0.86-2.032-1.272-3.088-0.028-0.071-0.055-0.143-0.082-0.213-0.384-0.993-0.755-2.013-1.106-3.064-0.88-2.625-1.644-5.441-2.21-8.516-0.113-0.615-0.219-1.24-0.316-1.876-0.466-3.059-0.736-6.364-0.736-9.98v-1.417h5.622v1.417c0 0.942 0.029 1.893 0.085 2.851 0.168 2.873 0.582 5.805 1.198 8.717 0.319 1.51 0.69 3.012 1.123 4.501 2.39 1.141 5.013 1.748 7.732 1.667 7.78-0.233 12.77-3.596 16.007-7.899 0.539-0.717 1.03-1.46 1.476-2.218 0.894-1.519 1.611-3.1 2.192-4.665 0.483-1.303 0.871-2.595 1.186-3.828 0.196-0.766 0.403-1.524 0.62-2.273 0.435-1.496 0.913-2.956 1.431-4.378 0.259-0.711 0.528-1.412 0.808-2.105 0.461 0.073 0.917 0.157 1.369 0.252 3.165 0.67 6.103 1.899 8.66 3.519 3.484 2.206 6.259 5.138 7.914 8.384 4.194 8.226 8.53 16.805 16.967 22.379 9.451 6.243 14.979 6.355 14.979 11.946 0 7.8-26.193 21.812-50.739 18.666" fill="#36a13f"/></g><g transform="translate(244.29 116.79)"><path d="m0 0c-0.041 1.196-0.138 2.526-0.3 3.951-0.554 4.859-1.916 10.877-4.764 16.958-1.638 3.494-3.769 7.005-6.519 10.327-4.107 4.964-9.598 9.5-16.91 12.91-0.655 0.307-1.319 0.607-2.005 0.894-1.343 0.564-2.706 1.058-4.082 1.487-2.746 0.857-5.545 1.432-8.35 1.675-1.734 0.151-3.47 0.172-5.197 0.054-10.284-0.706-20.248-6.394-27.508-19.82-1.135-2.099-2.648-4.413-4.418-6.832-7.879-10.766-20.907-23.65-28.936-29.278-4.967-3.481-9.557-5.422-9.373-7.902 0.348-4.696 18.104 2.48 40.067-8.363 21.029-10.383 27.615-24.548 39.882-31.705 12.131-7.075 22.893-1.566 28.902 10.706 6.478 13.234 10.062 28.81 9.511 44.938" fill="#ef7d15"/></g><g transform="translate(228.12 140.11)"><path d="m0 0c-4.92 1.846-9.568 4.858-13.246 9.626-1.355 1.757-2.405 3.554-3.209 5.358-1.229 2.757-1.856 5.533-1.964 8.225-2.746 0.856-5.545 1.433-8.35 1.675-1.734 0.15-3.47 0.172-5.198 0.053-3.016-4.976-6.812-9.281-10.931-12.978-0.332-0.298-0.667-0.592-1.004-0.882-4.32-4-6.535-8.965-10.669-15.016-2.269-3.324-5.119-6.974-9.218-10.971-8.236-8.032-2.518-13.841 0.184-16.449 10.223-9.871 36.034-22.938 49.716-16.174 8.069 3.989 16.847 10.287 18.141 29.545 0.018 0.26 0.04 0.514 0.054 0.781 0.306 5.503-1.287 11.681-4.306 17.207" fill="#ba551f"/></g><g transform="translate(288.03 136)"><path d="m0 0c-5.968 3.551-11.155 6.815-15.916 11.756-3.309 3.433-6.412 7.682-9.425 13.4-0.647 1.227-1.29 2.514-1.93 3.883-5.904 12.636-11.372 28.396-30.187 28.396-1.924 0-3.772-0.163-5.543-0.465-0.56-0.096-1.111-0.205-1.654-0.33-1.678-0.384-3.276-0.905-4.792-1.548-0.322-0.137-0.639-0.28-0.953-0.429-0.304-0.142-0.601-0.293-0.897-0.446-3.984-2.056-7.311-5.02-9.846-8.675-3.176-4.583-5.104-10.245-5.53-16.546-0.166-2.461-0.101-5.018 0.209-7.648 0.041-0.355 0.076-0.707 0.127-1.064 2.009-14.163 12.299-30.11 30.685-34.16 0.875-0.193 1.762-0.368 2.673-0.506 3.039-0.458 6.022-0.735 8.936-0.873 21.434-1.012 38.924 5.807 44.364 8.133 1.765 0.755 3.855 1.846 3.851 3.309-2e-3 1.141-1.461 2.2-4.172 3.813" fill="#a31a34"/></g><g transform="translate(201.96 200.26)"><path d="m0 0c-3.362 17.454-15.316 30.879-36.723 38.853-5.546 2.066-11.727 3.764-18.555 5.075-5.568 1.068-11.564 1.88-18.003 2.417-23.68 1.971-42.175 0.268-55.164-4.476-9.783-3.573-14.477-9.886-15.34-15.613-1.165-7.732 3.229-14.517 11.604-20.674 17.184-12.636 41.261-16.679 49.348-33.634 3.132-6.566 3.492-13.646 1.963-21.63-1.558-8.134-3.709-14.669 0.977-18.758 4.825-4.209 13.723-4.048 28.58 1.103 1.99 0.69 7.195 2.42 13.589 5.476 6.161 2.944 13.425 7.122 19.991 12.792 0.323 0.298 0.655 0.593 1.004 0.881 4.119 3.698 7.915 8.002 10.931 12.979 3.982 6.569 6.595 14.312 6.783 23.38 7e-3 0.347 0.018 0.691 0.018 1.042 0 3.748-0.34 7.344-1.003 10.787" fill="#ec5146"/></g><g transform="translate(191.21 188.58)"><path d="m0 0c0.023 0.463 0.036 0.924 0.041 1.385 0.046 4.575-0.811 9.05-2.521 13.083-0.814 1.919-1.818 3.738-3.007 5.42-4.274 6.052-10.066 10.523-16.474 13.833-5.783 2.986-12.066 5.022-18.19 6.422-11.189 2.556-21.841 2.98-27.911 3.135-17.503 0.449-29.847-2.46-32.416-9.708-1.903-5.837-0.029-11.286 9.193-16.84 24.073-14.496 27.657-21.48 33.353-36.257 5.593-14.507 25.089-20.052 42.09-8.289 6.196 4.287 10.477 9.795 13.025 15.718 0.577-3.275 0.872-6.482 0.872-9.471v-1.42h5.62v1.42c0 8.703-1.565 15.626-3.675 21.569" fill="#ed1c24"/></g><g transform="translate(262.02 142.59)"><path d="m0 0c-0.339 0.339-0.649 0.712-0.975 1.066-3.512 3.813-6.269 8.463-8.388 13.726-1.116 2.769-2.075 5.687-2.859 8.756-2.015 7.888-7.03 18.195-20.861 18.609-2.719 0.081-5.342-0.525-7.732-1.667-0.708-0.338-1.393-0.73-2.056-1.159-1.996-1.289-3.776-2.963-5.236-4.93-1.598-2.153-2.811-4.651-3.521-7.352-0.53-2.013-0.776-4.138-0.688-6.321 0.109-2.693 0.736-5.468 1.964-8.225 0.805-1.805 1.854-3.602 3.209-5.358 3.679-4.768 8.326-7.781 13.247-9.626 3.643-1.368 7.434-2.089 11.096-2.41 9.133-0.797 17.449 0.916 20.571 1.491 4.274 0.786 4.435 1.194 2.229 3.4" fill="#751d2c"/></g><g transform="translate(250.45 213.87)"><path d="m0 0c-20.983-0.028-33.067-27.198-33.067-46.857h-2.787c0 26.919 15.166 36.292 15.166 54.334 0 8.69-4.61 18.659-14.284 25.912-1.293 0.969-7.666 5.742-11.447 9.82-3.781-4.078-10.154-8.851-11.447-9.82-9.674-7.253-14.284-17.222-14.284-25.912 0-18.042 15.167-27.415 15.167-54.334h-2.788c0 19.659-12.084 46.829-33.067 46.857-14.942 0.02-25.253-14.242-22.173-28.393 2.067-9.467 10.703-17.782 20.965-16.359-1.738 6.568 1.284 13.95 8.481 14.993 8.319 1.204 13.377-7.324 14.932-17.098h-0.142c-1.69 0-3.06-1.372-3.06-3.062s1.37-3.06 3.06-3.06h48.712c1.69 0 3.061 1.37 3.061 3.06s-1.371 3.062-3.061 3.062h-0.142c1.556 9.774 6.613 18.302 14.932 17.098 7.197-1.043 10.219-8.425 8.481-14.993 10.262-1.423 18.898 6.892 20.965 16.359 3.08 14.151-7.232 28.413-22.173 28.393m-23.316-55.96c-6e-3 0.052-0.013 0.134-0.018 0.224h-9.708c0.321-7.099 5.755-21.262 14.583-21.262 6.469 0 11.502 5.673 12.016 11.863-7.891-1.779-15.804 0.061-16.873 9.175m-33.678 0.224c-0.689-6.732-3.103-14.962-7.901-21.602 3.315-7.229 10.593-14.488 18.476-19.041 7.883 4.553 15.161 11.812 18.476 19.041-4.798 6.64-7.212 14.87-7.901 21.602zm-2.802 0c-0.321-7.099-5.755-21.262-14.582-21.262-6.47 0-11.504 5.673-12.018 11.863 7.892-1.779 15.805 0.061 16.875 9.175 5e-3 0.052 0.012 0.134 0.018 0.224z" fill="#fff"/></g></g></g></svg>
