<svg width="134.93mm" height="72.18mm" fill-rule="evenodd" stroke-linejoin="round" stroke-width="28.222" preserveAspectRatio="xMidYMid" version="1.2" viewBox="0 0 13493 7218" xml:space="preserve" xmlns="http://www.w3.org/2000/svg">
 <g transform="translate(2113.1 -2219)">
<g transform="translate(-12700,-19430)"><g class="Group">
       <g class="com.sun.star.drawing.ClosedBezierShape">
         <rect class="BoundingBox" x="16088" y="23129" width="587" height="591" fill="none"/>
         <path d="m16382 23719c161 0 292-132 292-295 0-162-131-295-292-295-162 0-293 133-293 295 0 163 131 295 293 295zm0-397c56 0 101 46 101 102s-45 102-101 102-102-46-102-102 46-102 102-102z" fill="#7fbc42"/>
         <rect class="BoundingBox" x="17690" y="23713" width="586" height="591" fill="none"/>
         <path d="m17982 24303c162 0 293-132 293-294 0-163-131-296-293-296-161 0-292 133-292 296 0 162 131 294 292 294zm0-396c57 0 102 46 102 102s-45 103-102 103c-56 0-102-47-102-103s46-102 102-102z" fill="#7fbc42"/>
         <rect class="BoundingBox" x="15969" y="23797" width="1215" height="1887" fill="none"/>
         <path d="m16780 23934c-1-3-3-6-5-8 0-1-1-1-1-1-2-4-4-6-7-9l-2-1c-2-4-5-6-7-8-1 0-1-1-1-1-4-3-7-5-10-7 0 0-1 0-1-1-7-4-169-101-365-101s-360 97-367 101c-30 19-48 54-45 90l119 1606c4 50 45 89 96 89h394c49 0 91-39 94-89l96-1285 236 431c17 32 49 50 83 50 16 0 31-3 46-12 46-25 63-84 37-130zm-291 1557h-217l-108-1453c50-22 130-49 217-49s167 27 216 49z" fill="#7fbc42"/>
         <rect class="BoundingBox" x="17682" y="22966" width="1040" height="2704" fill="none"/>
         <path d="m18664 22975c-33-16-73-10-101 14l-517 443c-30 25-41 67-28 105 14 39 50 63 90 63h421v931l-306-86c-34-19-128-63-241-63-134 0-242 63-254 70-31 19-48 53-46 89l78 1039c3 50 45 89 95 89h254c50 0 91-39 95-89l68-922 257 73v843c0 52 43 95 95 95 53 0 96-43 96-95v-2512c0-37-22-71-56-87zm-643 2502h-78l-66-883c28-11 66-21 105-21s76 10 104 21zm345-2069 163-139v139z" fill="#7fbc42"/>
         <rect class="BoundingBox" x="14670" y="21649" width="5351" height="5353" fill="none"/>
         <path d="m17357 27000c525-2 1037-158 1474-451 440-294 783-712 986-1201 202-490 254-1028 151-1547-103-520-358-997-732-1371-375-374-851-629-1371-731-136-27-274-44-412-49h-218c-313 12-623 80-916 201-488 204-905 547-1200 987-287 433-443 938-449 1455v54c7 702 290 1373 785 1869 500 499 1177 781 1883 784zm-12-5161c492 0 971 146 1380 420 407 273 726 661 914 1115 187 454 237 953 141 1435-96 483-333 926-680 1273-347 348-790 585-1272 681-481 96-981 46-1434-142-454-188-843-506-1115-914-274-409-420-890-420-1381 0-659 262-1292 729-1758 465-467 1097-729 1757-729z" fill="#7fbc42"/>
       </g>
      </g></g><g transform="translate(-2.2519e-6)" fill="#7fbc42" stroke-width="864.75" aria-label="Youth Leading, Adults Supporting"><path d="m-2113.1 8456.5h140.95l102.95 390.98 102.95-390.98h128.69l-170.36 573.59v284.35h-134.82v-284.35z"/><path d="m-1613.2 8662.4q0-102.95 52.702-159.33 52.702-56.379 151.98-56.379 99.276 0 151.98 56.379 52.702 56.379 52.702 159.33v446.13q0 102.95-52.702 159.33t-151.98 56.379q-99.276 0-151.98-56.379t-52.702-159.33zm134.82 454.71q0 84.568 69.861 84.568t69.861-84.568v-463.29q0-84.568-69.861-84.568t-69.861 84.568z"/><path d="m-987.52 9118.3q0 83.343 69.861 83.343t69.861-83.343v-661.84h127.47v653.26q0 104.18-51.476 160.56-51.476 55.153-149.53 55.153-98.05 0-149.53-55.153-51.476-56.379-51.476-160.56v-653.26h134.82z"/><path d="m-250.38 8456.5v122.56h-140.95v735.38h-134.82v-735.38h-140.95v-122.56z"/><path d="m-192.2 9314.4v-857.94h134.82v367.69h153.2v-367.69h137.27v857.94h-137.27v-367.69h-153.2v367.69z"/><path d="m655.97 8456.5v735.38h221.84v122.56h-356.66v-857.94z"/><path d="m1257.6 8818.1v122.56h-185.07v251.25h232.87v122.56h-367.69v-857.94h367.69v122.56h-232.87v239z"/><path d="m1688 9314.4-23.287-155.66h-165.46l-23.287 155.66h-123.79l137.27-857.94h197.33l137.27 857.94zm-41.672-272.09-64.958-433.87-64.958 433.87z"/><path d="m2098.9 8456.5q100.5 0 150.75 53.928 50.251 53.928 50.251 158.11v433.87q0 104.18-50.251 158.11-50.251 53.928-150.75 53.928h-213.26v-857.94zm-78.44 735.38h75.989q33.092 0 50.251-19.61 18.384-19.61 18.384-63.733v-446.13q0-44.123-18.384-63.733-17.159-19.61-50.251-19.61h-75.989z"/><path d="m2520.8 8456.5v857.94h-134.82v-857.94z"/><path d="m2738.2 9314.4h-121.34v-857.94h169.14l138.5 513.54v-513.54h120.11v857.94h-138.5l-167.91-621.39z"/><path d="m3533.4 8836.4v272.09q0 104.18-51.476 160.56-51.476 55.153-149.53 55.153t-149.53-55.153q-51.476-56.379-51.476-160.56v-446.13q0-104.18 51.476-159.33 51.476-56.379 149.53-56.379t149.53 56.379q51.476 55.153 51.476 159.33v83.343h-127.47v-91.922q0-84.568-69.861-84.568t-69.861 84.568v463.29q0 83.343 69.861 83.343t69.861-83.343v-158.11h-61.282v-122.56z"/><path d="m3609.2 9184.5h129.92v116.43l-58.83 136.04h-55.153l35.543-122.56h-51.476z"/><path d="m4326 9314.4-23.287-155.66h-165.46l-23.287 155.66h-123.79l137.27-857.94h197.33l137.27 857.94zm-41.671-272.09-64.958-433.87-64.958 433.87z"/><path d="m4736.9 8456.5q100.5 0 150.75 53.928 50.251 53.928 50.251 158.11v433.87q0 104.18-50.251 158.11-50.251 53.928-150.75 53.928h-213.26v-857.94zm-78.44 735.38h75.989q33.092 0 50.251-19.61 18.384-19.61 18.384-63.733v-446.13q0-44.123-18.384-63.733-17.159-19.61-50.251-19.61h-75.989z"/><path d="m5152.6 9118.3q0 83.343 69.861 83.343t69.861-83.343v-661.84h127.47v653.26q0 104.18-51.476 160.56-51.476 55.153-149.53 55.153t-149.53-55.153q-51.476-56.379-51.476-160.56v-653.26h134.82z"/><path d="m5647.1 8456.5v735.38h221.84v122.56h-356.66v-857.94z"/><path d="m6244 8456.5v122.56h-140.95v735.38h-134.82v-735.38h-140.95v-122.56z"/><path d="m6285 8662.4q0-104.18 50.251-159.33 50.251-56.379 148.3-56.379t148.3 56.379q50.251 55.153 50.251 159.33v26.964h-127.47v-35.543q0-44.123-17.159-63.733-17.159-20.836-50.251-20.836t-50.251 20.836q-17.159 19.61-17.159 63.733 0 53.928 28.189 94.374 29.415 40.446 87.02 91.922 47.8 44.123 77.215 78.44 29.415 33.092 50.251 80.892t20.836 109.08q0 104.18-51.476 160.56-51.476 55.153-149.53 55.153t-149.53-55.153q-51.476-56.379-51.476-160.56v-52.702h127.47v61.282q0 83.343 69.861 83.343t69.861-83.343q0-53.928-29.415-94.374-28.19-40.446-85.794-91.922-47.8-44.123-77.215-77.215-29.415-34.318-50.251-82.117-20.836-47.8-20.836-109.08z"/><path d="m6931.4 8662.4q0-104.18 50.251-159.33 50.251-56.379 148.3-56.379t148.3 56.379q50.251 55.153 50.251 159.33v26.964h-127.47v-35.543q0-44.123-17.159-63.733-17.159-20.836-50.251-20.836t-50.251 20.836q-17.159 19.61-17.159 63.733 0 53.928 28.19 94.374 29.415 40.446 87.02 91.922 47.8 44.123 77.215 78.44 29.415 33.092 50.251 80.892t20.836 109.08q0 104.18-51.476 160.56-51.476 55.153-149.53 55.153t-149.53-55.153q-51.476-56.379-51.476-160.56v-52.702h127.47v61.282q0 83.343 69.861 83.343t69.861-83.343q0-53.928-29.415-94.374-28.19-40.446-85.794-91.922-47.8-44.123-77.215-77.215-29.415-34.318-50.251-82.117-20.836-47.8-20.836-109.08z"/><path d="m7534.4 9118.3q0 83.343 69.861 83.343t69.861-83.343v-661.84h127.47v653.26q0 104.18-51.476 160.56-51.476 55.153-149.53 55.153t-149.53-55.153q-51.476-56.379-51.476-160.56v-653.26h134.82z"/><path d="m8092.6 8456.5q100.5 0 150.75 53.928 50.251 53.928 50.251 158.11v111.53q0 104.18-50.251 158.11-50.251 53.928-150.75 53.928h-63.733v322.34h-134.82v-857.94zm-63.733 413.04h63.733q33.092 0 49.025-18.384 17.159-18.384 17.159-62.507v-128.69q0-44.123-17.159-62.507-15.933-18.384-49.025-18.384h-63.733z"/><path d="m8554.6 8456.5q100.5 0 150.75 53.928t50.251 158.11v111.53q0 104.18-50.251 158.11t-150.75 53.928h-63.733v322.34h-134.82v-857.94zm-63.733 413.04h63.733q33.092 0 49.025-18.384 17.159-18.384 17.159-62.507v-128.69q0-44.123-17.159-62.507-15.933-18.384-49.025-18.384h-63.733z"/><path d="m8807.1 8662.4q0-102.95 52.702-159.33 52.702-56.379 151.98-56.379t151.98 56.379q52.702 56.379 52.702 159.33v446.13q0 102.95-52.702 159.33t-151.98 56.379-151.98-56.379-52.702-159.33zm134.82 454.71q0 84.568 69.861 84.568t69.861-84.568v-463.29q0-84.568-69.861-84.568t-69.861 84.568z"/><path d="m9585.9 9314.4q-7.3538-20.836-9.805-39.22-2.4513-18.384-2.4513-66.184v-134.82q0-58.83-20.836-83.343-20.836-25.738-67.41-25.738h-46.574v349.3h-134.82v-857.94h203.45q104.18 0 151.98 49.025 47.8 47.8 47.8 148.3v67.41q0 132.37-88.245 174.04 47.8 19.61 68.635 66.184 20.836 45.348 20.836 116.43v132.37q0 36.769 2.4513 60.056 2.4512 22.061 12.256 44.123zm-147.08-471.87h52.702q40.446 0 60.056-20.836 20.836-20.836 20.836-69.861v-84.568q0-46.574-17.159-67.41-15.933-20.836-51.476-20.836h-64.958z"/><path d="m10175 8456.5v122.56h-140.95v735.38h-134.82v-735.38h-140.95v-122.56z"/><path d="m10368 8456.5v857.94h-134.82v-857.94z"/><path d="m10585 9314.4h-121.34v-857.94h169.14l138.5 513.54v-513.54h120.11v857.94h-138.5l-167.91-621.39z"/><path d="m11380 8836.4v272.09q0 104.18-51.476 160.56-51.477 55.153-149.53 55.153t-149.53-55.153q-51.476-56.379-51.476-160.56v-446.13q0-104.18 51.476-159.33 51.477-56.379 149.53-56.379t149.53 56.379q51.476 55.153 51.476 159.33v83.343h-127.46v-91.922q0-84.568-69.861-84.568t-69.861 84.568v463.29q0 83.343 69.861 83.343t69.861-83.343v-158.11h-61.282v-122.56z"/></g></g></svg>
